<?xml version="1.0" standalone="no"?>
<svg xmlns:xlink="http://www.w3.org/1999/xlink" id="wave" style="transform:rotate(0deg); transition: 0.3s" viewBox="0 0 1440 220" version="1.1" xmlns="http://www.w3.org/2000/svg"><defs><linearGradient id="sw-gradient-0" x1="0" x2="0" y1="1" y2="0"><stop stop-color="rgba(234.829, 131.908, 98.854, 1)" offset="0%"/><stop stop-color="rgba(239, 68, 68, 1)" offset="100%"/></linearGradient></defs><path style="transform:translate(0, 0px); opacity:1" fill="url(#sw-gradient-0)" d="M0,66L34.3,69.7C68.6,73,137,81,206,91.7C274.3,103,343,117,411,132C480,147,549,161,617,161.3C685.7,161,754,147,823,135.7C891.4,125,960,117,1029,117.3C1097.1,117,1166,125,1234,121C1302.9,117,1371,103,1440,110C1508.6,117,1577,147,1646,146.7C1714.3,147,1783,117,1851,91.7C1920,66,1989,44,2057,62.3C2125.7,81,2194,139,2263,146.7C2331.4,154,2400,110,2469,110C2537.1,110,2606,154,2674,143C2742.9,132,2811,66,2880,36.7C2948.6,7,3017,15,3086,47.7C3154.3,81,3223,139,3291,135.7C3360,132,3429,66,3497,44C3565.7,22,3634,44,3703,73.3C3771.4,103,3840,139,3909,132C3977.1,125,4046,73,4114,73.3C4182.9,73,4251,125,4320,124.7C4388.6,125,4457,73,4526,69.7C4594.3,66,4663,110,4731,132C4800,154,4869,154,4903,154L4937.1,154L4937.1,220L4902.9,220C4868.6,220,4800,220,4731,220C4662.9,220,4594,220,4526,220C4457.1,220,4389,220,4320,220C4251.4,220,4183,220,4114,220C4045.7,220,3977,220,3909,220C3840,220,3771,220,3703,220C3634.3,220,3566,220,3497,220C3428.6,220,3360,220,3291,220C3222.9,220,3154,220,3086,220C3017.1,220,2949,220,2880,220C2811.4,220,2743,220,2674,220C2605.7,220,2537,220,2469,220C2400,220,2331,220,2263,220C2194.3,220,2126,220,2057,220C1988.6,220,1920,220,1851,220C1782.9,220,1714,220,1646,220C1577.1,220,1509,220,1440,220C1371.4,220,1303,220,1234,220C1165.7,220,1097,220,1029,220C960,220,891,220,823,220C754.3,220,686,220,617,220C548.6,220,480,220,411,220C342.9,220,274,220,206,220C137.1,220,69,220,34,220L0,220Z"/></svg>